<?xml version="1.0" standalone="no"?>
<!DOCTYPE svg PUBLIC "-//W3C//DTD SVG 20010904//EN"
 "http://www.w3.org/TR/2001/REC-SVG-20010904/DTD/svg10.dtd">
<svg version="1.0" xmlns="http://www.w3.org/2000/svg"
 width="512.000000pt" height="512.000000pt" viewBox="0 0 512.000000 512.000000"
 preserveAspectRatio="xMidYMid meet">

<g transform="translate(0.000000,512.000000) scale(0.100000,-0.100000)"
fill="#000000" stroke="none">
<path d="M310 3568 c-89 -61 -91 -178 -4 -244 l37 -29 286 0 c280 0 287 0 322
23 93 57 91 195 -3 252 -31 19 -51 20 -319 20 -280 0 -287 0 -319 -22z"/>
<path d="M2559 3567 c-91 -61 -89 -181 5 -251 26 -20 40 -21 314 -21 323 0
329 1 371 75 40 72 18 158 -51 200 -31 19 -51 20 -319 20 -281 0 -287 0 -320
-23z"/>
<path d="M4172 3570 c-94 -57 -96 -195 -3 -252 35 -23 42 -23 322 -23 l286 0
37 29 c87 66 85 183 -4 244 -32 22 -39 22 -319 22 -268 0 -288 -1 -319 -20z"/>
<path d="M69 3327 c-66 -44 -69 -60 -69 -366 0 -262 1 -275 22 -312 23 -41 84
-79 128 -79 44 0 105 38 128 79 21 37 22 50 22 312 0 241 -2 278 -18 309 -25
50 -75 80 -132 80 -32 0 -58 -7 -81 -23z"/>
<path d="M1055 3341 c-30 -13 -74 -61 -83 -90 -4 -14 -7 -147 -7 -296 0 -252
1 -272 20 -304 59 -100 189 -106 252 -12 23 33 23 39 23 320 0 268 -1 288 -20
319 -37 60 -121 89 -185 63z"/>
<path d="M2320 3328 c-67 -45 -70 -60 -70 -366 0 -256 1 -275 21 -313 21 -43
80 -78 128 -79 48 0 108 38 130 84 20 40 21 60 21 312 0 243 -2 273 -19 304
-27 50 -62 73 -123 78 -44 3 -59 0 -88 -20z"/>
<path d="M3293 3334 c-18 -9 -43 -33 -55 -53 -22 -35 -23 -43 -23 -323 0 -274
1 -288 21 -314 70 -94 189 -96 252 -4 22 32 22 39 22 319 0 268 -1 288 -20
319 -41 66 -126 91 -197 56z"/>
<path d="M3932 3331 c-18 -12 -41 -35 -52 -53 -19 -31 -20 -51 -20 -318 0
-265 1 -287 20 -317 56 -92 179 -96 246 -7 l29 37 0 286 c0 313 -1 320 -63
365 -38 29 -119 32 -160 7z"/>
<path d="M4889 3327 c-66 -44 -69 -60 -69 -366 0 -262 1 -275 22 -312 23 -41
84 -79 128 -79 44 0 105 38 128 79 21 37 22 50 22 312 0 241 -2 278 -18 309
-25 50 -75 80 -132 80 -32 0 -58 -7 -81 -23z"/>
<path d="M1682 3090 c-101 -62 -95 -212 11 -260 50 -23 77 -25 121 -6 53 22
88 76 89 136 2 113 -126 188 -221 130z"/>
<path d="M84 2530 c-25 -13 -49 -35 -62 -59 -21 -37 -22 -50 -22 -312 0 -306
3 -322 69 -366 71 -48 175 -20 213 57 16 31 18 68 18 309 0 262 -1 275 -22
312 -23 41 -85 79 -129 79 -13 0 -42 -9 -65 -20z"/>
<path d="M1054 2536 c-39 -17 -71 -58 -85 -109 -7 -25 -9 -134 -7 -296 3 -227
5 -259 21 -286 29 -46 65 -68 121 -72 60 -5 105 18 136 69 19 31 20 51 20 319
0 281 0 287 -23 320 -41 61 -116 84 -183 55z"/>
<path d="M2333 2531 c-30 -14 -48 -31 -62 -60 -20 -38 -21 -57 -21 -313 0
-306 3 -321 70 -366 29 -20 44 -23 88 -20 61 5 96 28 123 78 17 31 19 61 19
304 0 252 -1 272 -21 312 -15 31 -32 48 -63 63 -52 26 -79 26 -133 2z"/>
<path d="M3305 2536 c-45 -19 -83 -70 -90 -119 -4 -23 -5 -154 -3 -292 3 -240
4 -252 26 -286 57 -93 195 -91 252 3 19 31 20 51 20 319 0 280 0 287 -22 319
-43 62 -117 85 -183 56z"/>
<path d="M3940 2532 c-19 -9 -45 -32 -57 -51 -23 -33 -23 -39 -23 -320 0 -268
1 -288 20 -319 31 -51 76 -74 136 -69 56 4 92 26 121 72 16 27 18 56 18 316
l0 286 -29 37 c-48 63 -119 82 -186 48z"/>
<path d="M4904 2530 c-25 -13 -49 -35 -62 -59 -21 -37 -22 -50 -22 -312 0
-306 3 -322 69 -366 71 -48 175 -20 213 57 16 31 18 68 18 309 0 262 -1 275
-22 312 -23 41 -85 79 -129 79 -13 0 -42 -9 -65 -20z"/>
<path d="M1693 2290 c-140 -63 -91 -280 63 -280 46 0 94 28 127 72 31 42 27
118 -8 164 -29 37 -78 64 -117 64 -13 0 -42 -9 -65 -20z"/>
<path d="M360 1823 c-62 -12 -120 -85 -120 -150 0 -40 32 -94 70 -120 32 -23
39 -23 319 -23 268 0 288 1 319 20 94 57 96 195 3 252 -35 22 -44 23 -301 24
-146 1 -276 0 -290 -3z"/>
<path d="M2602 1820 c-98 -24 -143 -155 -81 -234 43 -54 55 -56 361 -56 265 0
285 1 316 20 69 42 91 128 51 200 -41 73 -51 75 -349 77 -146 1 -280 -2 -298
-7z"/>
<path d="M4209 1821 c-127 -40 -149 -203 -37 -271 31 -19 51 -20 319 -20 280
0 287 0 319 23 89 60 91 177 4 243 l-37 29 -271 2 c-149 1 -283 -2 -297 -6z"/>
</g>
</svg>
